<?xml version="1.0" standalone="no"?>
<!DOCTYPE svg PUBLIC "-//W3C//DTD SVG 20010904//EN"
 "http://www.w3.org/TR/2001/REC-SVG-20010904/DTD/svg10.dtd">
<svg version="1.0" xmlns="http://www.w3.org/2000/svg"
 width="500.000000pt" height="500.000000pt" viewBox="0 0 500.000000 500.000000"
 preserveAspectRatio="xMidYMid meet">

<g transform="translate(0.000000,500.000000) scale(0.100000,-0.100000)"
fill="#000000" stroke="none">
<path d="M1595 3469 c-130 -43 -445 -119 -492 -119 -23 0 -37 10 -67 50 -35
46 -41 50 -81 50 -42 0 -44 -1 -84 -66 -56 -89 -55 -125 2 -242 36 -70 50
-118 77 -248 32 -157 34 -162 68 -189 35 -28 36 -28 91 -16 31 7 119 19 196
26 77 8 233 32 347 54 l208 39 55 49 c55 47 55 49 53 98 l-3 49 -47 14 c-27 7
-48 17 -48 21 0 4 16 54 35 112 28 80 37 127 42 204 l6 100 -114 28 c-63 15
-116 27 -119 26 -3 0 -59 -19 -125 -40z m50 -246 c-2 -16 -7 -72 -11 -126 -5
-88 -8 -99 -31 -117 -18 -14 -41 -20 -75 -20 -27 0 -103 -13 -168 -30 -65 -16
-125 -30 -134 -30 -17 0 -23 25 -31 135 l-6 80 63 39 c54 34 82 43 203 67 77
15 152 27 167 28 25 1 27 -2 23 -26z"/>
<path d="M3555 3394 c-10 -25 -15 -72 -15 -148 -1 -61 -6 -138 -13 -171 -17
-80 -13 -503 5 -552 l13 -35 88 5 c48 2 90 7 93 9 2 3 8 43 12 90 7 82 9 87
52 136 33 37 65 60 123 87 70 32 76 37 67 55 -14 26 4 63 28 58 15 -3 17 -21
20 -131 2 -84 -3 -155 -13 -209 -8 -44 -15 -86 -15 -93 0 -7 33 -27 73 -44 63
-27 76 -30 104 -21 17 6 43 29 58 50 26 38 28 47 46 309 13 195 16 302 11 383
-6 86 -5 121 5 145 7 18 13 35 13 38 0 3 -35 21 -77 41 l-77 35 -53 -22 c-45
-18 -57 -29 -84 -76 -17 -30 -37 -86 -45 -126 -13 -66 -18 -76 -65 -118 -34
-32 -67 -52 -102 -62 -29 -8 -54 -13 -56 -10 -3 2 9 18 26 36 30 30 32 39 42
142 8 93 3 197 -12 211 -4 5 -169 24 -204 24 -28 0 -35 -5 -48 -36z"/>
<path d="M2615 3185 c-82 -13 -154 -24 -158 -24 -11 -1 2 -169 14 -192 14 -27
71 -31 166 -13 70 13 116 15 223 9 84 -4 138 -11 142 -18 16 -25 5 -54 -64
-164 -63 -102 -178 -357 -178 -396 0 -20 113 -87 146 -87 16 1 54 7 84 14 l54
12 17 67 c10 40 34 93 58 130 23 35 41 72 41 83 0 11 19 61 43 110 24 49 51
118 61 154 10 36 34 95 52 132 19 37 34 83 34 101 0 30 -6 38 -55 71 l-55 36
-237 -1 c-195 -1 -265 -6 -388 -24z"/>
<path d="M1705 2640 l-280 -60 -90 15 -91 15 -262 -48 c-188 -35 -267 -54
-282 -67 -17 -15 -20 -31 -20 -92 0 -41 4 -82 10 -92 6 -13 32 -22 85 -31 l75
-13 265 58 c161 36 269 55 274 49 8 -8 -1 -140 -11 -149 -2 -2 -52 -7 -111
-11 l-107 -7 -105 -65 c-113 -70 -114 -72 -99 -149 11 -55 39 -62 173 -42 65
9 127 21 137 27 11 5 52 12 93 16 41 4 119 20 172 37 117 37 144 33 173 -27
18 -38 18 -40 -3 -107 -23 -70 -39 -225 -27 -270 4 -17 22 -36 50 -52 l44 -26
103 13 104 13 16 162 c9 89 14 175 11 191 -2 18 5 47 21 79 20 39 24 57 18 84
-4 19 -5 58 -1 87 6 48 4 54 -21 78 l-27 26 -166 -4 -166 -3 -11 54 c-10 50
-10 55 13 77 21 21 39 24 228 38 270 21 297 25 320 44 19 16 19 21 7 87 l-13
70 -68 23 c-111 37 -128 36 -431 -28z"/>
<path d="M3513 2356 c-165 -28 -187 -34 -235 -66 -45 -30 -54 -42 -64 -82 -11
-45 -10 -48 15 -70 58 -53 55 -52 128 -19 54 24 101 34 232 52 203 26 211 24
211 -55 0 -43 -4 -56 -17 -60 -10 -2 -126 -26 -259 -51 l-241 -47 -56 -95
c-49 -83 -54 -98 -46 -125 7 -25 4 -39 -12 -68 -21 -37 -21 -38 -4 -119 10
-44 23 -81 29 -81 173 3 425 24 535 45 84 16 169 25 230 25 53 0 153 3 223 7
l126 6 7 99 c4 55 5 101 3 104 -3 2 -53 9 -112 14 -98 9 -133 6 -416 -30 -378
-49 -364 -48 -356 -12 12 49 28 80 44 87 10 4 101 15 205 25 182 18 189 19
238 52 29 18 86 47 128 63 l76 31 6 119 c6 105 4 129 -14 188 -14 45 -26 67
-36 67 -9 0 -81 7 -161 15 -187 19 -193 18 -407 -19z"/>
</g>
</svg>
